<svg viewBox="0 0 24 24" fill="none" xmlns="http://www.w3.org/2000/svg">
<path d="M5.653 18.75C4.797 18.75 4.255 17.833 4.667 17.083L11.015 5.543C11.1121 5.36661 11.2548 5.21952 11.4281 5.11708C11.6015 5.01464 11.7991 4.9606 12.0005 4.9606C12.2019 4.9606 12.3995 5.01464 12.5729 5.11708C12.7462 5.21952 12.8889 5.36661 12.986 5.543L19.333 17.083C19.4272 17.2542 19.4751 17.447 19.472 17.6424C19.469 17.8378 19.4151 18.0291 19.3157 18.1973C19.2163 18.3655 19.0748 18.505 18.9051 18.6019C18.7354 18.6988 18.5434 18.7499 18.348 18.75H5.653V18.75Z" stroke-width="1.5" stroke-linecap="round" stroke-linejoin="round"/>
</svg>
