<svg viewBox="0 0 20 20" xmlns="http://www.w3.org/2000/svg">
<path d="M2.84094 13.7C2.69786 13.9269 2.61826 14.1881 2.61043 14.4562C2.60261 14.7244 2.66684 14.9897 2.79644 15.2246C2.92603 15.4595 3.11626 15.6553 3.34728 15.7917C3.5783 15.9281 3.84167 16 4.10994 16L15.8899 16C16.1582 16 16.4216 15.9281 16.6526 15.7917C16.8836 15.6553 17.0738 15.4595 17.2034 15.2246C17.333 14.9897 17.3973 14.7244 17.3894 14.4562C17.3816 14.1881 17.302 13.9269 17.1589 13.7L11.2689 4.35597C11.1338 4.14155 10.9465 3.96486 10.7246 3.84241C10.5027 3.71996 10.2534 3.65574 9.99994 3.65574C9.74648 3.65574 9.49716 3.71996 9.27525 3.84241C9.05334 3.96486 8.86607 4.14155 8.73094 4.35597L2.83994 13.7H2.84094Z" fill="black"/>
</svg>
